HIERARCHY
ROOT Hips
{
	OFFSET 0.000000 35.082581 0.000000
	CHANNELS 6 Xposition Yposition Zposition Xrotation Yrotation Zrotation 
	JOINT Spine
	{
		OFFSET 0.000000 6.876099 0.125700
		CHANNELS 3 Xrotation Yrotation Zrotation
		JOINT Spine1
		{
			OFFSET 0.000000 5.730043 0.104720
			CHANNELS 3 Xrotation Yrotation Zrotation
			JOINT Spine1_split
			{
				OFFSET 0.000000 5.730043 0.104720
				CHANNELS 3 Xrotation Yrotation Zrotation
				JOINT Spine2
				{
					OFFSET 0.000000 5.730043 0.104720
					CHANNELS 3 Xrotation Yrotation Zrotation
					JOINT Neck
					{
						OFFSET 0.000000 10.314075 0.188496
						CHANNELS 3 Xrotation Yrotation Zrotation
						JOINT Head
						{
							OFFSET 0.000000 7.643700 -2.377400
							CHANNELS 3 Xrotation Yrotation Zrotation
							JOINT HeadTop_End
							{
								OFFSET 0.000000 43.788605 -13.619600
								CHANNELS 3 Xrotation Yrotation Zrotation
								End Site
								{
									OFFSET 0.000000 0.000000 0.000000
								}
							}
						}
					}
					JOINT LeftShoulder
					{
						OFFSET 2.196100 4.412489 0.087492
						CHANNELS 3 Xrotation Yrotation Zrotation
						JOINT LeftShoulder_split
						{
							OFFSET 2.196100 4.412489 0.087492
							CHANNELS 3 Xrotation Yrotation Zrotation
							JOINT LeftArm
							{
								OFFSET 8.771219 -2.981674 -0.026999
								CHANNELS 3 Xrotation Yrotation Zrotation
								JOINT LeftForeArm
								{
									OFFSET 8.512804 0.000000 -0.000000
									CHANNELS 3 Xrotation Yrotation Zrotation
									JOINT LeftHand
									{
										OFFSET 18.484802 0.000000 -0.000000
										CHANNELS 3 Xrotation Yrotation Zrotation
										JOINT LeftHandThumb1
										{
											OFFSET 2.499420 -1.158070 2.653252
											CHANNELS 3 Xrotation Yrotation Zrotation
											JOINT LeftHandThumb2
											{
												OFFSET 2.370079 -1.368366 1.368366
												CHANNELS 3 Xrotation Yrotation Zrotation
												JOINT LeftHandThumb3
												{
													OFFSET 2.676727 -1.545410 1.545409
													CHANNELS 3 Xrotation Yrotation Zrotation
													JOINT LeftHandThumb4
													{
														OFFSET 1.692226 -0.977005 0.977007
														CHANNELS 3 Xrotation Yrotation Zrotation
														End Site
														{
															OFFSET 0.000000 0.000000 0.000000
														}
													}
												}
											}
										}
										JOINT LeftHandIndex1
										{
											OFFSET 7.924831 -0.457527 2.345128
											CHANNELS 3 Xrotation Yrotation Zrotation
											JOINT LeftHandIndex2
											{
												OFFSET 3.643303 0.000000 0.000000
												CHANNELS 3 Xrotation Yrotation Zrotation
												JOINT LeftHandIndex3
												{
													OFFSET 3.810799 0.000000 0.000000
													CHANNELS 3 Xrotation Yrotation Zrotation
													JOINT LeftHandIndex4
													{
														OFFSET 2.403702 0.000000 0.000000
														CHANNELS 3 Xrotation Yrotation Zrotation
														End Site
														{
															OFFSET 0.000000 0.000000 0.000000
														}
													}
												}
											}
										}
										JOINT LeftHandMiddle1
										{
											OFFSET 8.563995 0.000000 -0.000000
											CHANNELS 3 Xrotation Yrotation Zrotation
											JOINT LeftHandMiddle2
											{
												OFFSET 3.861618 0.000000 0.000000
												CHANNELS 3 Xrotation Yrotation Zrotation
												JOINT LeftHandMiddle3
												{
													OFFSET 3.701603 0.000000 0.000000
													CHANNELS 3 Xrotation Yrotation Zrotation
													JOINT LeftHandMiddle4
													{
														OFFSET 2.322544 0.000000 0.000000
														CHANNELS 3 Xrotation Yrotation Zrotation
														End Site
														{
															OFFSET 0.000000 0.000000 0.000000
														}
													}
												}
											}
										}
										JOINT LeftHandRing1
										{
											OFFSET 8.426460 -0.424637 -3.286992
											CHANNELS 3 Xrotation Yrotation Zrotation
											JOINT LeftHandRing2
											{
												OFFSET 3.126408 0.000000 0.000000
												CHANNELS 3 Xrotation Yrotation Zrotation
												JOINT LeftHandRing3
												{
													OFFSET 3.085026 0.000000 0.000000
													CHANNELS 3 Xrotation Yrotation Zrotation
													JOINT LeftHandRing4
													{
														OFFSET 1.644005 0.000000 0.000000
														CHANNELS 3 Xrotation Yrotation Zrotation
														End Site
														{
															OFFSET 0.000000 0.000000 0.000000
														}
													}
												}
											}
										}
									}
								}
							}
						}
					}
					JOINT RightShoulder
					{
						OFFSET -2.196100 4.412496 0.070690
						CHANNELS 3 Xrotation Yrotation Zrotation
						JOINT RightShoulder_split
						{
							OFFSET -2.196100 4.412496 0.070690
							CHANNELS 3 Xrotation Yrotation Zrotation
							JOINT RightArm
							{
								OFFSET -8.771282 -2.981682 -0.094208
								CHANNELS 3 Xrotation Yrotation Zrotation
								JOINT RightForeArm
								{
									OFFSET -8.494598 0.000000 0.000000
									CHANNELS 3 Xrotation Yrotation Zrotation
									JOINT RightHand
									{
										OFFSET -18.483803 0.000000 0.000001
										CHANNELS 3 Xrotation Yrotation Zrotation
										JOINT RightHandThumb1
										{
											OFFSET -2.527351 -1.008072 2.575253
											CHANNELS 3 Xrotation Yrotation Zrotation
											JOINT RightHandThumb2
											{
												OFFSET -2.321518 -1.340328 1.340329
												CHANNELS 3 Xrotation Yrotation Zrotation
												JOINT RightHandThumb3
												{
													OFFSET -2.657753 -1.534454 1.534455
													CHANNELS 3 Xrotation Yrotation Zrotation
													JOINT RightHandThumb4
													{
														OFFSET -1.807510 -1.043568 1.043567
														CHANNELS 3 Xrotation Yrotation Zrotation
														End Site
														{
															OFFSET 0.000000 0.000000 0.000000
														}
													}
												}
											}
										}
										JOINT RightHandIndex1
										{
											OFFSET -8.811420 0.015533 2.887987
											CHANNELS 3 Xrotation Yrotation Zrotation
											JOINT RightHandIndex2
											{
												OFFSET -3.537502 0.000000 0.000000
												CHANNELS 3 Xrotation Yrotation Zrotation
												JOINT RightHandIndex3
												{
													OFFSET -3.356201 0.000000 0.000000
													CHANNELS 3 Xrotation Yrotation Zrotation
													JOINT RightHandIndex4
													{
														OFFSET -1.933098 0.000000 0.000000
														CHANNELS 3 Xrotation Yrotation Zrotation
														End Site
														{
															OFFSET 0.000000 0.000000 0.000000
														}
													}
												}
											}
										}
										JOINT RightHandMiddle1
										{
											OFFSET -8.178135 0.000000 0.000000
											CHANNELS 3 Xrotation Yrotation Zrotation
											JOINT RightHandMiddle2
											{
												OFFSET -3.901302 0.000000 0.000000
												CHANNELS 3 Xrotation Yrotation Zrotation
												JOINT RightHandMiddle3
												{
													OFFSET -3.909599 0.000000 0.000000
													CHANNELS 3 Xrotation Yrotation Zrotation
													JOINT RightHandMiddle4
													{
														OFFSET -2.376003 0.000000 0.000000
														CHANNELS 3 Xrotation Yrotation Zrotation
														End Site
														{
															OFFSET 0.000000 0.000000 0.000000
														}
													}
												}
											}
										}
										JOINT RightHandRing1
										{
											OFFSET -7.559013 0.014137 -2.865403
											CHANNELS 3 Xrotation Yrotation Zrotation
											JOINT RightHandRing2
											{
												OFFSET -3.449306 0.000000 0.000000
												CHANNELS 3 Xrotation Yrotation Zrotation
												JOINT RightHandRing3
												{
													OFFSET -3.362106 0.000000 0.000000
													CHANNELS 3 Xrotation Yrotation Zrotation
													JOINT RightHandRing4
													{
														OFFSET -2.076401 0.000000 0.000000
														CHANNELS 3 Xrotation Yrotation Zrotation
														End Site
														{
															OFFSET 0.000000 0.000000 0.000000
														}
													}
												}
											}
										}
									}
								}
							}
						}
					}
				}
			}
		}
	}
	JOINT LeftUpLeg
	{
		OFFSET 10.205400 -3.823500 0.155100
		CHANNELS 3 Xrotation Yrotation Zrotation
		JOINT LeftLeg
		{
			OFFSET 0.708757 -12.982077 0.567790
			CHANNELS 3 Xrotation Yrotation Zrotation
			JOINT LeftFoot
			{
				OFFSET -0.708756 -10.717838 -2.184338
				CHANNELS 3 Xrotation Yrotation Zrotation
				JOINT LeftToeBase
				{
					OFFSET 0.108149 -7.191104 7.560241
					CHANNELS 3 Xrotation Yrotation Zrotation
					JOINT LeftToe_End
					{
						OFFSET 0.070230 0.081724 4.490308
						CHANNELS 3 Xrotation Yrotation Zrotation
						End Site
						{
							OFFSET 0.000000 0.000000 0.000000
						}
					}
				}
			}
		}
	}
	JOINT RightUpLeg
	{
		OFFSET -10.205400 -3.823500 0.005500
		CHANNELS 3 Xrotation Yrotation Zrotation
		JOINT RightLeg
		{
			OFFSET -0.708756 -12.982134 0.610632
			CHANNELS 3 Xrotation Yrotation Zrotation
			JOINT RightFoot
			{
				OFFSET 0.708754 -10.717769 -1.945823
				CHANNELS 3 Xrotation Yrotation Zrotation
				JOINT RightToeBase
				{
					OFFSET -0.108140 -7.191069 7.372968
					CHANNELS 3 Xrotation Yrotation Zrotation
					JOINT RightToe_End
					{
						OFFSET -0.070227 0.081735 4.479403
						CHANNELS 3 Xrotation Yrotation Zrotation
						End Site
						{
							OFFSET 0.000000 0.000000 0.000000
						}
					}
				}
			}
		}
	}
}
MOTION
Frames: 4
Frame Time: 0.016667
-46.254890 26.960293 -0.571351 5.516848 -57.972767 2.761127 15.963272 1.140914 -4.247514 15.662358 2.194514 -5.768869 0.000000 0.000000 0.000000 15.861038 2.321213 -5.742677 -14.884347 23.425660 6.721292 -15.964674 21.324450 2.083149 -0.000000 0.000000 -0.000001 -0.592723 -13.563768 6.823808 0.000000 0.000000 0.000000 -37.598429 23.788786 -23.345662 0.137225 -73.842473 0.102666 21.507007 -12.727060 33.551832 -0.176247 -1.991306 10.659546 -0.979206 11.076286 -5.731071 -1.819334 -7.916922 -2.018634 -0.000002 0.000005 -0.000002 13.247453 -0.979856 21.207941 -0.180160 0.297643 -20.577340 -0.128606 0.309428 -21.728075 0.000000 0.000000 0.000000 8.602426 -0.416373 9.612727 0.200401 0.617482 -19.373434 0.419214 0.140636 -33.828885 0.000001 -0.000003 -0.000003 6.158748 3.074139 -5.684676 0.025722 0.262728 -19.597367 0.393952 0.759816 -31.612246 -0.000001 -0.000001 0.000001 -2.118355 13.247532 13.753763 0.000000 0.000000 0.000000 -38.399074 -0.958084 39.774179 151.512502 110.498124 -153.014324 -21.986357 0.700014 -2.641030 1.093327 1.408786 -13.987308 3.986639 -25.048817 0.080549 4.270668 -21.254172 -11.788142 0.000001 -0.000002 -0.000000 19.464656 11.168271 -4.447432 -0.110050 -0.329367 26.935964 -0.071894 -0.279462 32.156937 0.000000 -0.000002 -0.000000 4.244754 2.329710 4.090260 0.378202 -0.490165 35.790642 0.497426 0.132908 47.944786 -0.000001 0.000002 -0.000004 -7.005475 -10.749423 14.617064 0.115646 -0.151329 35.055987 0.483010 -0.512616 42.165404 0.000003 0.000000 -0.000002 -51.903045 -29.239808 24.512446 45.663260 -7.944359 -10.689010 4.560902 0.731822 -26.178641 -0.319304 -0.845811 0.794625 0.000000 -0.000001 -0.000000 -38.337285 7.117262 -27.107843 96.101479 23.073665 -4.658908 -38.984541 -10.118737 14.277972 9.043572 1.778786 -0.430553 -0.000000 -0.000000 0.000001 
-46.840015 26.942562 -0.559183 4.057275 -58.317904 1.579447 15.894351 0.972307 -4.287736 15.476324 1.900078 -5.988019 0.000000 0.000000 0.000000 15.663099 2.020914 -5.953944 -15.640629 24.355953 6.043394 -15.299788 22.041524 1.948350 0.000001 0.000000 0.000000 -1.370463 -14.343349 3.032892 0.000000 0.000000 0.000000 -38.279614 22.614277 -23.089897 0.142114 -75.187829 0.108013 21.180306 -12.561900 30.726340 -0.172656 -1.962140 10.669725 -0.991717 11.049002 -5.744201 -1.829350 -7.945214 -2.034930 -0.000002 0.000004 -0.000001 13.246167 -0.979972 21.241412 -0.180234 0.297655 -20.543867 -0.128576 0.309591 -21.694551 0.000000 0.000000 -0.000001 8.602993 -0.416588 9.646205 0.200005 0.617161 -19.339944 0.418471 0.140937 -33.795407 -0.000001 -0.000001 -0.000001 6.160615 3.072704 -5.651295 0.025778 0.262510 -19.563888 0.393184 0.760107 -31.578755 -0.000002 -0.000000 0.000001 -2.145704 13.116413 13.287850 0.000000 0.000000 0.000000 -38.908518 -2.796920 41.271138 150.551412 108.832685 -151.840774 -18.983466 0.814717 -0.184478 1.100652 1.316013 -14.020259 4.097963 -25.391046 -0.046751 4.301346 -21.611234 -11.948331 -0.000002 0.000001 -0.000003 19.480338 11.186128 -4.051281 -0.109617 -0.329612 27.333176 -0.071253 -0.279290 32.554099 0.000000 0.000001 -0.000000 4.235007 2.325071 4.487346 0.380053 -0.491327 36.187807 0.499212 0.132016 48.341910 0.000001 0.000001 0.000004 -7.026277 -10.770438 15.013178 0.116084 -0.154257 35.453173 0.483583 -0.513351 42.562477 0.000003 0.000001 0.000001 -49.674678 -29.062182 26.001994 46.908872 -9.168630 -11.106949 2.004835 1.424554 -26.274747 -0.311211 -0.827752 0.799885 0.000000 0.000000 -0.000000 -38.318314 7.293880 -27.739336 92.826137 18.633922 -5.211126 -40.439446 -12.271894 14.407664 14.737702 4.749761 4.728454 0.000001 -0.000001 0.000000 
-47.416557 26.920910 -0.563262 2.641960 -58.567800 0.476880 15.819866 0.821268 -4.297462 15.281052 1.631122 -6.174516 0.000000 0.000000 0.000000 15.452417 1.743126 -6.133698 -16.471734 25.128985 5.368879 -14.460299 22.658895 1.648727 0.000000 -0.000000 -0.000001 -2.134506 -14.889218 -0.321584 0.000000 0.000000 0.000000 -38.090852 21.313440 -23.421113 0.143805 -75.859674 0.109852 21.642674 -12.430009 28.334584 -0.171295 -1.951968 10.673355 -0.995535 11.040127 -5.747494 -1.832649 -7.954332 -2.039788 -0.000004 0.000003 -0.000002 13.244946 -0.980196 21.252190 -0.180232 0.297747 -20.533256 -0.128602 0.309849 -21.683860 -0.000001 0.000002 0.000002 8.603639 -0.416703 9.656910 0.199606 0.616976 -19.329311 0.417767 0.141418 -33.784715 -0.000001 0.000001 -0.000007 6.162574 3.070944 -5.640782 0.025940 0.262501 -19.553201 0.392206 0.760643 -31.568103 -0.000000 -0.000002 0.000000 -2.213411 12.977059 12.820909 0.000000 0.000000 0.000000 -38.520307 -3.822275 41.682295 149.720315 107.278086 -150.818363 -17.231133 2.319441 1.639098 1.099591 1.332548 -14.014478 4.157007 -25.569875 -0.112240 4.317111 -21.797727 -12.032358 0.000006 0.000001 -0.000002 19.490556 11.198339 -3.844279 -0.109415 -0.329745 27.540774 -0.070994 -0.279284 32.761740 0.000001 0.000000 0.000000 4.228738 2.322532 4.694892 0.381020 -0.491854 36.395390 0.499972 0.131551 48.549483 0.000003 -0.000001 -0.000001 -7.040158 -10.784494 15.220090 0.116262 -0.155902 35.660790 0.484307 -0.513774 42.770040 0.000001 -0.000001 -0.000000 -47.481839 -28.635741 27.453495 47.727876 -10.419042 -11.464560 -0.237559 2.041076 -26.299794 -0.304872 -0.800851 0.804410 0.000000 -0.000001 -0.000000 -38.154079 7.146473 -28.285603 88.709623 14.797950 -5.835388 -40.283797 -14.032697 15.789859 17.703289 6.559154 10.158580 -0.000001 0.000001 -0.000000 
-48.015999 26.811169 -0.620426 1.295656 -58.747031 -0.509450 15.740079 0.690397 -4.303721 15.077537 1.383969 -6.329464 0.000000 0.000000 0.000000 15.230632 1.483838 -6.284086 -17.484608 25.776249 4.725518 -13.493821 23.182104 1.276608 0.000000 0.000000 0.000002 -2.761771 -14.973153 -2.599934 0.000000 0.000000 0.000000 -36.570656 20.101438 -24.497426 0.136181 -75.533587 0.102004 22.628502 -12.613181 26.528094 -0.175616 -1.983322 10.662186 -0.950368 11.151368 -5.698976 -1.794649 -7.840050 -1.978394 -0.000001 0.000003 -0.000001 13.243769 -0.980687 21.119399 -0.180073 0.297931 -20.665895 -0.128249 0.310090 -21.816633 -0.000000 0.000002 -0.000000 8.602300 -0.415806 9.524141 0.199704 0.617411 -19.462043 0.417669 0.142353 -33.917500 0.000001 0.000001 0.000001 6.163238 3.070131 -5.773604 0.026167 0.263570 -19.685930 0.392105 0.761522 -31.700872 0.000001 0.000001 0.000001 -2.248337 12.848370 12.353103 0.000000 0.000000 0.000000 -38.156264 -4.801565 41.733224 148.594303 105.662658 -149.509480 -15.782216 4.369588 3.355030 1.092517 1.427167 -13.981080 4.180301 -25.639292 -0.137674 4.324369 -21.870167 -12.064779 0.000001 -0.000004 0.000001 19.497130 11.206779 -3.763930 -0.109354 -0.329818 27.621567 -0.070897 -0.279379 32.842452 0.000001 -0.000001 0.000001 4.225241 2.321644 4.775573 0.381436 -0.492082 36.476157 0.500130 0.131374 48.630298 -0.000002 -0.000001 0.000003 -7.049290 -10.793711 15.300481 0.116320 -0.156708 35.741523 0.484751 -0.513861 42.850869 -0.000001 0.000003 -0.000002 -45.494493 -28.165894 29.022959 48.502348 -11.917120 -11.863052 -2.390388 2.686456 -26.386202 -0.309947 -0.769623 0.796048 0.000000 -0.000002 0.000000 -38.568401 7.053086 -28.845211 83.013696 13.117603 -6.400641 -35.955837 -14.009960 19.429648 15.198339 4.665162 7.916112 0.000000 -0.000001 0.000000 
